<svg xmlns="http://www.w3.org/2000/svg" width="87" height="16" viewBox="0 0 87 16">
    <g fill="none" fill-rule="evenodd">
        <g fill="#cccccc" fill-rule="nonzero">
            <g>
                <path d="M80.51 4.12c1.102-.016 2.176.343 3.048 1.018.057-.195.16-.374.298-.522.24-.255.575-.399.925-.396.354-.002.695.138.945.39.25.25.388.592.383.947l-.153 4.127.154 4.28c.007.352-.132.69-.384.933-.252.245-.594.373-.944.355-.569.027-1.081-.34-1.238-.888-.873.658-1.94 1.005-3.034.988-3.077-.035-5.553-2.539-5.553-5.616 0-3.077 2.476-5.58 5.553-5.615zm-22.588-.042c2.036-.045 3.938 1.015 4.97 2.771 1.03 1.756 1.03 3.933 0 5.69-1.032 1.756-2.934 2.816-4.97 2.77-1.527.02-2.997-.574-4.083-1.647-1.042-1.049-1.622-2.47-1.612-3.948-.009-1.508.59-2.955 1.662-4.016 1.072-1.06 2.526-1.644 4.033-1.62zm-27.16 0c2.888 0 5.15 2.087 5.15 4.751 0 1.077-.645 1.746-1.685 1.746h-6.194c.112 1.097 1.272 2.201 3.332 2.201.788.026 1.567-.176 2.243-.582.318-.189.701-.233 1.054-.121.343.108.624.359.77.689.266.591.046 1.289-.512 1.62-1.08.623-2.307.943-3.553.927-3.68 0-6.059-2.252-6.059-5.737-.038-1.461.522-2.875 1.553-3.913 1.03-1.038 2.44-1.609 3.901-1.581zM21.6 3.925c.921 0 1.565.584 1.565 1.42 0 .804-.612 1.344-1.523 1.344h-.124c-1.55 0-3.51 1.098-3.986 2.874l.006 4.306c0 .71-.577 1.287-1.288 1.287-.711 0-1.288-.576-1.288-1.287l.05-4.335-.05-4.316c0-.46.244-.886.641-1.117.398-.23.889-.232 1.288-.003.399.23.645.654.647 1.114v.802c1.178-1.334 2.638-2.09 4.062-2.09zm26.13.445c.478-.002.912.276 1.11.711.196.435.12.945-.196 1.303l-5.479 6.338h4.845c.674-.001 1.219.544 1.219 1.216 0 .672-.545 1.217-1.218 1.217h-7.443c-.672 0-1.216-.545-1.217-1.217 0-.033.003-.066.007-.098l.007-.066c.008-.052.015-.093.025-.133.012-.047.027-.093.044-.138.01-.028.022-.056.036-.082.02-.044.043-.085.068-.126.023-.037.049-.072.076-.106.013-.02.027-.04.043-.057l5.586-6.328h-4.674c-.672 0-1.217-.545-1.217-1.217s.545-1.217 1.217-1.217zM69.107.02c.705 0 1.28.565 1.291 1.27v10.957l.705.705c.504.504.504 1.321 0 1.826-.504.504-1.321.505-1.826 0l-.846-.848c-.395-.393-.617-.927-.615-1.484V1.29c.012-.704.586-1.27 1.291-1.27zM6.077 0c2.786-.038 5.129 2.081 5.368 4.857.104 1.443-.402 2.863-1.394 3.916-.987 1.053-2.364 1.651-3.807 1.654h-.939c-.702-.011-1.265-.584-1.265-1.287 0-.702.563-1.275 1.265-1.286h.797c1.392.027 2.583-.995 2.769-2.375.077-.743-.168-1.485-.672-2.036-.5-.552-1.21-.867-1.955-.869h-3.67v11.295c0 .46-.246.884-.644 1.114-.398.23-.889.23-1.287 0C.245 14.753 0 14.33 0 13.87V1.365C0 .612.611.001 1.365.001zM80.51 6.656c-.803.014-1.567.35-2.118.934-.552.583-.846 1.365-.815 2.167 0 1.757 1.261 3.081 2.933 3.081 1.116.017 2.154-.568 2.716-1.532.563-.963.563-2.155 0-3.118-.562-.964-1.6-1.55-2.716-1.532zm-21.035.377c-.945-.558-2.119-.558-3.064 0-.945.558-1.512 1.585-1.48 2.682-.027 1.094.541 2.116 1.484 2.67.943.555 2.113.555 3.056 0 .943-.554 1.511-1.576 1.485-2.67.031-1.097-.536-2.124-1.481-2.682zm-28.706-.545c-1.364 0-2.365.75-2.657 1.976h5.31c-.18-1.123-1.305-1.977-2.653-1.976z" transform="translate(-40 -177) translate(40 177)"/>
            </g>
        </g>
    </g>
</svg>